<?xml version="1.0" encoding="UTF-8" standalone="no"?>
<!-- Created with Inkscape (http://www.inkscape.org/) -->

<svg
   width="64"
   height="64"
   viewBox="0 0 16.933333 16.933333"
   version="1.1"
   id="svg5"
   xml:space="preserve"
   inkscape:version="1.2.1 (ef4d3fba62, 2022-07-19, custom)"
   sodipodi:docname="icon.svg"
   xmlns:inkscape="http://www.inkscape.org/namespaces/inkscape"
   xmlns:sodipodi="http://sodipodi.sourceforge.net/DTD/sodipodi-0.dtd"
   xmlns="http://www.w3.org/2000/svg"
   xmlns:svg="http://www.w3.org/2000/svg"><sodipodi:namedview
     id="namedview7"
     pagecolor="#ffffff"
     bordercolor="#666666"
     borderopacity="1.0"
     inkscape:showpageshadow="2"
     inkscape:pageopacity="0.0"
     inkscape:pagecheckerboard="0"
     inkscape:deskcolor="#d1d1d1"
     inkscape:document-units="mm"
     showgrid="false"
     showguides="true"
     inkscape:zoom="8.5670232"
     inkscape:cx="47.391024"
     inkscape:cy="28.014398"
     inkscape:window-width="1920"
     inkscape:window-height="1043"
     inkscape:window-x="1920"
     inkscape:window-y="0"
     inkscape:window-maximized="1"
     inkscape:current-layer="layer1"><sodipodi:guide
       position="0,16.933333"
       orientation="0,64"
       id="guide455"
       inkscape:locked="false" /><sodipodi:guide
       position="16.933333,16.933333"
       orientation="64,0"
       id="guide457"
       inkscape:locked="false" /><sodipodi:guide
       position="-200.04968,16.933333"
       orientation="0,-64"
       id="guide459"
       inkscape:locked="false" /><sodipodi:guide
       position="0,0"
       orientation="-64,0"
       id="guide461"
       inkscape:locked="false" /></sodipodi:namedview><defs
     id="defs2" /><g
     inkscape:label="Vrstva 1"
     inkscape:groupmode="layer"
     id="layer1"><path
       style="fill:#009cdf;fill-opacity:1;stroke-width:0.0110543"
       d="m 10.600887,15.809906 c -0.09424,-0.05025 -0.34296,-0.181948 -0.552719,-0.292655 C 9.8384118,15.406546 9.6598641,15.311518 9.6513939,15.306084 l -0.015395,-0.0099 0.1213756,-0.202876 C 10.00397,14.681127 10.182895,14.372753 10.365749,14.04477 10.483991,13.832674 10.530982,13.746887 10.690759,13.451435 12.9122,9.3435515 13.458129,6.0655228 12.26174,4.0184533 11.289462,2.3548651 9.1385777,1.4160872 6.0685989,1.3154018 5.8970531,1.3097899 5.7733131,1.3037054 5.7480195,1.2996597 c -0.00314,-6.271e-4 0.039003,-0.020697 0.093426,-0.044934 l 0.098954,-0.044046 0.1055523,8.46e-5 c 0.7242115,6.272e-4 1.8898952,0.123047 2.642533,0.277813 3.0561212,0.6284463 4.6898222,2.2409362 4.9711472,4.9066116 l 0.01925,0.1823958 3.13e-4,0.5140293 3.14e-4,0.5140291 -0.01427,0.1547596 c -0.170984,1.8525789 -0.740743,3.7370413 -1.853281,6.1296513 -0.326271,0.701677 -0.990368,2.00298 -1.025163,2.008808 -0.008,0.0013 -0.09168,-0.03867 -0.185914,-0.08893 z m 3.797178,-1.672639 c -0.164158,-0.05788 -0.395469,-0.139228 -0.514029,-0.180778 -0.118556,-0.04155 -0.352358,-0.123736 -0.519554,-0.182643 -0.1672,-0.05891 -0.386074,-0.135948 -0.486393,-0.171207 -0.100318,-0.03526 -0.19314,-0.06835 -0.206266,-0.07353 l -0.02386,-0.0094 0.0491,-0.121595 c 0.479252,-1.186817 0.857813,-2.360233 1.07702,-3.338422 0.03133,-0.1398363 0.05875,-0.2603813 0.06093,-0.2678763 0.0025,-0.00844 0.01571,-0.011511 0.03478,-0.00806 0.01696,0.00312 0.202439,0.030515 0.412196,0.06103 0.684552,0.09956 1.13165,0.1652183 1.207691,0.1773563 l 0.07462,0.01192 v 0.02546 c 0,0.210936 -0.147287,1.205105 -0.277618,1.8739 -0.136739,0.701668 -0.540361,2.311442 -0.579095,2.309623 -0.0061,-2.95e-4 -0.145364,-0.04787 -0.309523,-0.105755 z M 10.015006,12.597159 C 9.3835783,12.374427 8.0111554,11.89195 7.8704594,11.843235 7.8005399,11.819026 7.6612552,11.770023 7.5609338,11.734337 7.4606188,11.698648 7.2442269,11.622388 7.0800693,11.564867 6.9159116,11.507343 6.6398296,11.410383 6.4665528,11.349398 6.293276,11.288412 5.9724237,11.175666 5.7535456,11.098848 5.5346707,11.022029 5.3083295,10.942467 5.2505733,10.92204 5.0754246,10.860098 4.5766542,10.684661 4.0456446,10.498213 3.7690106,10.401084 3.5340018,10.318122 3.5234061,10.313857 l -0.019253,-0.0077 0.4241937,-0.4216793 C 4.386301,9.4291917 4.6143204,9.1898426 4.9382176,8.8243674 5.0522582,8.6956854 5.161141,8.5730082 5.1801756,8.5517505 l 0.034609,-0.038652 0.1312067,0.018405 c 0.072162,0.010127 0.2680041,0.038652 0.4352004,0.063402 0.1671965,0.024743 0.4905387,0.072372 0.7185326,0.1058345 0.6615042,0.097092 1.1518548,0.1691407 1.3513969,0.198567 0.1018398,0.015018 0.270971,0.039934 0.3758489,0.05536 0.1048811,0.015426 0.2727675,0.04017 0.3730857,0.054978 0.1003188,0.014801 0.4360942,0.064175 0.746172,0.1097201 0.3100746,0.04554 0.9716782,0.1428687 1.4702292,0.2162784 0.498554,0.073413 0.947499,0.1389237 0.99766,0.1455809 0.05016,0.00665 0.0912,0.01549 0.0912,0.019597 0,0.067045 -0.368486,0.9946346 -0.610638,1.5371586 -0.245987,0.55112 -0.824668,1.693896 -0.860429,1.699166 -0.0087,0.0013 -0.197313,-0.06172 -0.41923,-0.140002 z M 1.7024931,11.115994 C 1.3840554,10.948713 1.4017317,10.972135 1.5220915,10.876931 4.4959662,8.5246411 6.3906217,6.0544502 6.3925628,4.5269697 L 6.3928137,4.3445707 6.3733403,4.2229725 C 6.227408,3.3110562 5.403546,2.7221277 3.9461605,2.4879311 3.7599454,2.4580151 3.401924,2.4155999 3.3354067,2.4155905 c -0.050973,-9.4e-6 -0.052956,-0.011696 -0.00555,-0.032437 0.019757,-0.00866 0.076151,-0.034127 0.1253142,-0.05663 l 0.089387,-0.040913 0.1648636,0.014895 c 3.7446084,0.3382779 4.2590042,2.5844133 1.363039,5.9517877 -0.7772601,0.9037886 -1.6164721,1.7345245 -2.7227037,2.6952098 -0.1282145,0.111344 -0.2613873,0.226999 -0.2959383,0.257013 -0.077439,0.06726 -0.033914,0.07823 -0.351342,-0.08852 z M 1.8390681,9.7237117 C 1.6012744,9.6398881 1.3982414,9.5680523 1.3878779,9.5640762 L 1.3690333,9.5568317 1.5936058,9.3724003 C 2.0018789,9.0371141 2.351531,8.7313734 2.7344477,8.3748289 2.8492817,8.2679065 2.9512592,8.1812412 2.9610616,8.1822418 c 0.02026,0.00217 0.6596266,0.095153 0.8524331,0.124107 l 0.1271266,0.0191 -0.2266139,0.2298847 C 3.2795216,8.9960967 2.323581,9.8787527 2.2829412,9.8766917 2.2766278,9.8763787 2.0768535,9.8075247 1.8390605,9.7237041 Z M 14.784968,7.1683709 c -0.194557,-0.00408 -0.426668,-0.00812 -0.515801,-0.00897 l -0.16206,-0.00159 -0.0061,-0.0912 C 14.097669,7.0164543 14.08948,6.8933344 14.082829,6.7930162 14.054143,6.3622104 13.925574,5.6232478 13.845948,5.4318177 l -0.0075,-0.018125 0.09744,-0.00706 c 0.193083,-0.014017 1.064929,-0.072767 1.079856,-0.072767 0.0095,0 0.04018,0.065398 0.08167,0.1743336 0.177102,0.4650474 0.305304,0.9394678 0.394252,1.4589502 l 0.03644,0.2127946 -0.19467,-0.00217 c -0.10707,-0.00128 -0.353854,-0.00548 -0.548411,-0.00957 z M 11.529454,7.1125833 C 11.2893,7.1078004 10.632668,7.09606 10.070278,7.0864624 9.5078856,7.0768647 8.7940504,7.0643208 8.4839764,7.0586451 8.1739018,7.0529694 7.5632857,7.0422111 7.1270506,7.0347817 6.6908183,7.0273522 6.3339008,7.0183795 6.3339008,7.0148402 c 0,-0.00357 0.054899,-0.098399 0.1219996,-0.2107972 C 6.5875866,6.5834466 6.814828,6.1398421 6.8762717,5.9834204 l 0.037983,-0.0967 0.033161,-0.00511 c 0.018252,-0.00283 0.301783,-0.022735 0.6300989,-0.044281 0.3283153,-0.021543 0.9625601,-0.064059 1.4094317,-0.094461 0.4468754,-0.030386 0.9940658,-0.067577 1.2159817,-0.082607 0.569575,-0.038583 0.833129,-0.05647 1.475759,-0.1001554 0.310074,-0.021073 0.611535,-0.041493 0.669908,-0.045363 l 0.106136,-0.00702 0.01258,0.09828 c 0.05226,0.4089505 0.05498,1.1564898 0.0054,1.4773138 l -0.0064,0.041452 -0.250074,-0.00185 c -0.13754,-9.566e-4 -0.446565,-0.00568 -0.686722,-0.010414 z M 4.6315286,6.9916662 c -0.2158396,-0.00421 -0.431303,-0.00834 -0.4788137,-0.00916 l -0.08638,-0.00159 0.050424,-0.063561 c 0.2189441,-0.2759879 0.4163198,-0.547846 0.547758,-0.7544598 0.044481,-0.06992 0.081789,-0.1283749 0.082912,-0.129902 0.00357,-0.00489 0.9613371,-0.067797 0.9656959,-0.063438 0.032042,0.032042 -0.6132531,1.0266724 -0.667456,1.0287954 -0.011944,3.131e-4 -0.1983037,-0.00249 -0.4141401,-0.0068 z M 5.1631778,5.1487773 C 5.213666,5.0026537 5.2679269,4.7478045 5.2755534,4.6210102 l 0.00249,-0.04414 0.049742,-0.00768 c 0.027377,-0.00423 0.2186114,-0.040183 0.4250026,-0.079892 0.2063912,-0.039709 0.3772189,-0.070236 0.3796178,-0.067837 0.021198,0.021198 -0.00423,0.335644 -0.04408,0.5452023 L 6.0646198,5.091291 6.0416338,5.096051 C 6.0289958,5.098561 5.9614568,5.108469 5.8915371,5.117814 5.8216171,5.127164 5.635076,5.152242 5.4769985,5.17356 5.3189213,5.194883 5.1786615,5.212322 5.165309,5.212322 l -0.024272,3.1e-6 z M 7.1819435,4.8905697 c 0.012729,-0.071278 0.00853,-0.5368203 -0.00542,-0.6012712 -0.015835,-0.07315 -0.089776,-0.052441 0.7492037,-0.2098249 0.410396,-0.076988 0.92774,-0.1741799 1.1496564,-0.2159868 C 9.2973007,3.8216828 9.891748,3.7098309 10.396383,3.6149311 10.901014,3.5200281 11.36364,3.4327454 11.424438,3.4209703 l 0.110544,-0.021418 0.01659,0.020446 c 0.238029,0.2935423 0.561346,0.8192618 0.523732,0.8515954 -0.0054,0.00458 -0.186297,0.03201 -0.402137,0.060935 -0.215836,0.028912 -0.534202,0.07182 -0.707478,0.095317 -0.173277,0.023487 -0.703057,0.095129 -1.1772898,0.1591812 -0.4742323,0.064056 -0.8970619,0.1213756 -0.9396213,0.1273839 -0.042561,0.00602 -0.1893074,0.026122 -0.326105,0.044723 C 8.3858753,4.7777288 8.1669969,4.8076678 8.03628,4.8256728 7.513298,4.8977088 7.2982332,4.9265056 7.2372188,4.9326612 l -0.063943,0.00646 z M 13.197389,4.0100556 C 13.050372,3.7847365 12.882871,3.5740336 12.665827,3.341386 12.59127,3.2614693 12.550312,3.2097186 12.559372,3.2068712 c 0.0081,-0.00251 0.195065,-0.037959 0.415482,-0.078691 l 0.40076,-0.074062 0.06343,0.053817 c 0.22859,0.1939451 0.834346,0.846528 0.808538,0.8710345 -0.0022,0.00219 -0.213205,0.032092 -0.46856,0.066351 -0.255357,0.034262 -0.474881,0.064567 -0.487835,0.067345 l -0.02355,0.00505 z m -7.9799802,0.013766 c 0,-0.034846 -0.07886,-0.2102922 -0.1370419,-0.3048878 -0.033302,-0.05414 -0.057127,-0.098543 -0.05295,-0.098675 0.00415,-1.255e-4 0.1667768,-0.044805 0.3613332,-0.099277 l 0.3537409,-0.099039 0.036338,0.041243 c 0.1159882,0.1316393 0.2625917,0.4005088 0.2183795,0.4005088 -0.00887,0 -0.1859738,0.039797 -0.3935817,0.088434 -0.4344353,0.1017818 -0.3862187,0.092829 -0.386218,0.071693 z M 6.8755658,3.5191973 C 6.8360453,3.4582429 6.7572666,3.3591067 6.7005017,3.2988955 L 6.597292,3.1894173 6.612062,3.1843073 C 6.6201836,3.1814777 6.8009423,3.1313983 7.013737,3.0729775 7.2265347,3.0145535 7.5697739,2.9201651 7.7764909,2.8632247 7.9832055,2.8062841 8.326444,2.7118924 8.5392417,2.6534687 8.7520362,2.5950448 8.9684281,2.5352666 9.0201062,2.5206316 9.3660296,2.4226681 10.004949,2.2497457 10.020983,2.2497457 c 0.0711,0 0.823891,0.4647118 0.777502,0.4799677 -0.0084,0.00283 -0.144543,0.034943 -0.302621,0.071541 -0.158077,0.036595 -0.6903438,0.161417 -1.1828173,0.277377 C 8.8205731,3.1945945 8.310693,3.314559 8.1799728,3.345218 8.0492552,3.3758866 7.8826105,3.4152789 7.8096523,3.4327768 7.4801043,3.5118187 6.9644509,3.6314727 6.9563481,3.6307797 6.9514377,3.6304661 6.915075,3.5801423 6.8755594,3.5191879 Z M 4.5817814,3.2220519 C 4.5392201,3.1922928 4.4436606,3.1369203 4.3694199,3.0990017 4.2951787,3.0610862 4.235485,3.029311 4.2367675,3.028389 4.2437952,3.0233383 4.7857646,2.8358801 4.8118454,2.8294768 l 0.031076,-0.00762 0.046298,0.019725 c 0.1135299,0.048364 0.2798672,0.1314229 0.3571217,0.1783256 l 0.084172,0.051102 -0.015114,0.00831 c -0.02681,0.014738 -0.6207793,0.1985517 -0.6388134,0.1976987 -0.0096,-3.136e-4 -0.052261,-0.025181 -0.094821,-0.054937 z M 3.4818722,2.7967669 C 3.393714,2.7769798 3.2631348,2.7516266 3.1916943,2.7404442 3.0284837,2.7149183 3.0198101,2.7254553 3.302239,2.6057915 l 0.2404339,-0.1018833 0.1768673,0.027595 c 0.1952522,0.030449 0.4557621,0.08156 0.4795286,0.094084 l 0.015241,0.00803 -0.048409,0.017185 c -0.026625,0.00944 -0.144524,0.054906 -0.2619987,0.1010126 -0.2433381,0.095496 -0.2118698,0.092143 -0.4220363,0.044952 z M 5.969106,2.7646342 C 5.8931059,2.7261951 5.7645053,2.668477 5.6833249,2.6363754 5.5911596,2.5999279 5.5413374,2.5749568 5.5506728,2.5698895 c 0.00822,-0.00445 0.1592095,-0.058643 0.3355249,-0.1204066 0.1763185,-0.061761 0.3827568,-0.1344332 0.4587569,-0.1614924 0.076,-0.027062 0.5286763,-0.1861682 1.0059473,-0.3535747 l 0.8677702,-0.3043797 0.082905,0.017937 c 0.2016217,0.043601 0.7682135,0.2000348 0.8155207,0.2251592 0.00775,0.00411 -0.074335,0.035328 -0.1823957,0.069368 -0.1080605,0.034039 -0.5546381,0.1746595 -0.992391,0.312492 -0.9207155,0.2898953 -1.7944688,0.5656292 -1.8184454,0.5738514 -0.00913,0.00314 -0.07876,-0.025777 -0.1547597,-0.064203 z m 5.60319,-0.3039188 c -0.232742,-0.1429093 -0.74334,-0.4099382 -0.783864,-0.4099382 -0.0059,0 -0.01063,-0.00373 -0.01057,-0.00828 8.4e-5,-0.00784 0.576858,-0.1688615 0.604152,-0.1686703 0.04204,2.948e-4 0.584815,0.2516883 0.802125,0.3715149 0.07464,0.041158 0.149699,0.081892 0.166795,0.090525 0.04122,0.020791 0.06739,0.012355 -0.312975,0.1011181 -0.185435,0.043274 -0.34275,0.080641 -0.349586,0.083034 -0.0068,0.00251 -0.05907,-0.024303 -0.116073,-0.059292 z M 4.6591647,2.3541344 C 4.5862034,2.3401486 4.4494051,2.3182073 4.3551676,2.3053662 4.2609294,2.2925404 4.1643361,2.2784921 4.1405192,2.2741958 l -0.043307,-0.00784 0.1593753,-0.06849 C 4.3442475,2.1601948 4.8169832,1.957846 5.307117,1.7481998 l 0.8911543,-0.3811733 0.1590119,0.010631 c 0.3676671,0.024617 0.8559918,0.07516 0.8422037,0.087189 -0.00775,0.00677 -0.073636,0.033155 -0.3736693,0.1496734 C 6.7397699,1.6479359 5.8957663,1.9768658 5.6595815,2.0690311 5.0333243,2.3134098 4.8484287,2.3822601 4.8217931,2.3809933 4.8053017,2.3800495 4.732121,2.3681363 4.6591628,2.3541505 Z M 9.6667942,1.645762 C 9.5348349,1.605589 9.170727,1.5153332 8.9731791,1.4738273 8.877448,1.4537265 8.7991056,1.4347703 8.7990839,1.4317322 8.7989991,1.4216346 9.2241462,1.2769725 9.2539302,1.2769725 c 0.042262,0 0.4769004,0.090315 0.7223863,0.1501093 0.1155175,0.028128 0.2336605,0.056275 0.2625415,0.062531 0.07849,0.016997 0.07292,0.019944 -0.200377,0.1058376 -0.2863895,0.090008 -0.2551719,0.085784 -0.3716868,0.050312 z M 7.5388261,1.2542437 c -0.064056,-0.00771 -0.4807575,-0.0407 -0.7959153,-0.063017 l -0.1160698,-0.00822 0.1747883,-0.074285 0.1747852,-0.074281 0.2950252,0.0164 c 0.5313265,0.029571 0.8508808,0.060801 0.8023441,0.078449 -0.011511,0.00417 -0.095486,0.036636 -0.1866104,0.072112 l -0.165685,0.064504 -0.055405,-0.00157 c -0.030483,-9.438e-4 -0.087737,-0.0054 -0.127258,-0.01016 z"
       id="path6091"
       sodipodi:nodetypes="ssscsssssssccsscccsssssssssscsssssscsscsssssssssscssscsssssssssssssccccssssscssssccsscsssscsssssccsscsssscsssssssssccssssscsscssssscsssssssscsssscsssscssssssscssssssssscssssscsssscssscscsssssscssssssssssssssssscsscsssssscsscssssssssscsssssssscssssssssscsscsssssssscssssssscccssscss" /></g></svg>
